<svg id="svg" version="1.1" xmlns="http://www.w3.org/2000/svg" xmlns:xlink="http://www.w3.org/1999/xlink" width="400" height="400" viewBox="0, 0, 400,400"><g id="svgg"><path id="path0" d="M48.400 25.386 C 48.400 49.908,48.426 50.786,49.159 51.178 C 49.658 51.445,59.853 51.553,78.859 51.492 L 107.800 51.400 107.903 25.700 L 108.006 0.000 78.203 0.000 L 48.400 0.000 48.400 25.386 M102.118 3.709 L 103.200 4.418 103.200 25.145 L 103.200 45.872 102.100 46.436 C 99.963 47.532,58.583 47.473,56.019 46.370 L 54.000 45.501 53.929 25.951 C 53.889 15.198,53.844 6.010,53.829 5.532 C 53.808 4.899,54.283 4.409,55.587 3.719 L 57.375 2.774 79.205 2.887 C 99.318 2.991,101.121 3.056,102.118 3.709 M-0.000 42.192 L 0.000 60.800 16.400 60.800 L 32.800 60.800 32.847 80.300 C 32.873 91.025,32.866 100.025,32.830 100.300 C 32.794 100.575,32.953 100.800,33.182 100.800 C 33.412 100.800,33.600 101.160,33.600 101.600 C 33.600 102.040,33.423 102.400,33.206 102.400 C 32.949 102.400,32.810 120.914,32.807 155.586 L 32.803 208.772 33.702 209.611 C 34.522 210.377,34.531 210.424,33.800 210.161 C 33.360 210.002,33.137 210.023,33.304 210.207 C 33.781 210.732,33.527 210.729,86.100 210.766 L 136.000 210.800 136.000 305.400 L 136.000 400.000 218.800 400.000 L 301.600 400.000 301.600 305.400 L 301.600 210.800 350.800 210.800 L 400.000 210.800 400.000 132.799 L 400.000 54.798 218.135 54.801 C 118.110 54.803,36.214 54.747,36.144 54.677 C 36.074 54.608,36.005 47.850,35.990 39.661 C 35.976 31.471,35.865 24.514,35.745 24.201 C 35.561 23.720,32.748 23.628,17.763 23.608 L -0.000 23.585 -0.000 42.192 M28.581 28.464 C 29.142 28.720,29.600 29.080,29.600 29.264 C 29.600 29.449,29.870 29.600,30.200 29.600 C 30.719 29.600,30.800 31.067,30.800 40.400 C 30.800 46.340,30.828 51.335,30.861 51.500 C 31.292 53.613,5.680 54.880,3.646 52.846 C 2.442 51.642,2.133 29.748,3.305 28.700 C 4.278 27.831,26.731 27.621,28.581 28.464 M218.400 59.519 C 344.181 59.072,395.001 59.163,396.288 59.837 L 397.575 60.513 397.688 108.356 C 397.749 134.670,397.710 166.563,397.600 179.230 L 397.400 202.259 396.402 203.715 L 395.405 205.170 371.802 205.285 C 350.431 205.389,348.055 205.465,346.669 206.092 C 345.309 206.708,344.987 206.722,343.784 206.219 C 342.680 205.758,338.340 205.637,320.358 205.569 L 298.286 205.486 296.900 206.842 C 295.591 208.121,295.526 208.310,295.744 210.199 C 295.986 212.289,295.975 237.697,295.718 273.831 C 295.611 288.886,295.702 295.750,296.031 297.431 C 296.287 298.734,296.465 300.610,296.427 301.600 C 296.389 302.590,296.275 313.570,296.173 326.000 C 296.018 344.870,295.889 348.808,295.394 349.860 C 294.585 351.577,294.536 391.763,295.339 394.010 C 295.890 395.548,295.561 396.188,293.734 397.141 C 293.106 397.468,279.431 397.601,243.934 397.624 C 163.442 397.678,145.526 397.587,144.621 397.121 C 142.252 395.899,142.400 397.378,142.400 374.921 C 142.400 357.870,142.294 353.852,141.777 351.350 C 141.176 348.441,141.183 348.277,141.977 346.754 C 142.963 344.863,143.261 306.648,142.315 303.400 C 142.003 302.328,141.743 294.204,141.527 278.800 C 141.350 266.150,141.188 254.851,141.167 253.692 C 141.141 252.270,141.400 251.061,141.964 249.979 C 142.781 248.412,142.800 247.901,142.796 227.488 C 142.790 202.892,142.847 203.580,140.856 204.042 C 140.055 204.229,129.393 204.385,117.162 204.390 C 95.534 204.400,94.904 204.422,94.209 205.190 C 93.214 206.290,92.297 206.500,90.953 205.937 C 88.957 205.102,88.681 205.091,65.097 204.926 L 41.995 204.764 41.297 203.700 C 40.531 202.532,40.185 182.529,40.077 133.200 C 40.028 111.014,40.135 108.874,41.387 106.964 L 42.054 105.946 66.035 106.031 C 79.225 106.078,90.116 106.018,90.237 105.897 C 90.358 105.776,90.489 95.607,90.528 83.300 C 90.605 59.469,90.570 59.878,92.529 59.464 C 93.008 59.362,115.720 59.354,143.000 59.445 C 170.280 59.536,204.210 59.569,218.400 59.519 M77.636 60.219 L 78.833 60.838 78.717 77.319 C 78.619 91.066,78.500 93.999,77.995 95.000 L 77.390 96.200 59.795 96.409 C 43.587 96.602,42.140 96.564,41.437 95.934 C 40.327 94.941,40.410 60.986,41.525 60.139 C 42.623 59.304,76.011 59.378,77.636 60.219 M93.800 108.485 C 91.472 109.304,91.600 107.943,91.606 131.949 C 91.609 144.187,91.744 154.393,91.906 154.629 C 92.627 155.682,95.047 155.810,117.858 156.000 C 140.043 156.184,141.977 156.255,142.690 156.900 C 143.687 157.803,144.094 157.782,144.707 156.800 C 145.198 156.015,145.640 156.000,168.734 156.000 L 192.261 156.000 193.149 156.946 L 194.038 157.892 194.096 182.446 C 194.168 213.445,194.067 292.468,193.916 323.217 C 193.807 345.258,193.843 346.699,194.524 347.740 L 195.249 348.846 218.805 348.723 C 237.469 348.626,242.469 348.492,242.880 348.080 C 243.303 347.657,243.419 329.820,243.502 252.447 L 243.605 157.335 244.513 156.482 C 245.420 155.629,245.435 155.629,271.810 155.616 C 286.325 155.608,308.689 155.594,321.509 155.585 C 334.329 155.576,345.075 155.469,345.390 155.349 C 346.347 154.981,346.438 152.580,346.317 131.000 L 346.200 110.200 344.752 109.492 C 343.397 108.829,340.020 108.772,291.752 108.585 C 170.459 108.116,147.426 108.157,144.083 108.847 C 142.113 109.254,141.614 109.228,140.516 108.660 C 138.971 107.861,96.031 107.700,93.800 108.485 M339.200 132.798 L 339.200 151.597 289.300 151.698 L 239.400 151.800 239.299 247.100 L 239.198 342.400 218.799 342.400 L 198.400 342.400 198.400 247.000 L 198.400 151.600 148.400 151.600 L 98.400 151.600 98.400 132.800 L 98.400 114.000 218.800 114.000 L 339.200 114.000 339.200 132.798 " stroke="none" fill="#c2c1c8" fill-rule="evenodd"></path><path id="path1" d="M56.944 4.300 C 56.234 4.968,56.206 5.936,56.324 25.319 L 56.447 45.638 57.450 46.019 C 58.888 46.566,98.963 46.517,100.947 45.966 C 102.454 45.548,102.488 45.498,102.252 44.068 C 102.118 43.261,102.007 34.086,102.004 23.680 L 102.000 4.759 100.613 4.180 C 98.305 3.215,57.979 3.327,56.944 4.300 M5.200 28.688 C 4.650 28.787,4.044 29.018,3.852 29.201 C 3.339 29.695,3.547 51.654,4.072 52.286 C 4.751 53.105,26.018 53.018,27.620 52.190 L 28.800 51.579 28.800 40.600 L 28.800 29.621 27.620 29.010 C 26.478 28.420,8.163 28.157,5.200 28.688 M91.676 60.484 C 91.319 60.841,91.200 66.725,91.200 84.033 L 91.200 107.107 90.300 107.422 C 89.805 107.595,78.697 107.841,65.616 107.968 L 41.832 108.200 41.527 109.600 C 41.057 111.755,41.112 201.316,41.584 202.557 L 41.980 203.600 65.747 203.600 C 87.985 203.600,89.536 203.555,89.857 202.900 C 90.162 202.278,90.880 159.936,90.680 154.400 C 90.304 144.024,90.660 108.850,91.147 108.264 C 92.240 106.947,94.539 106.818,117.389 106.790 C 138.902 106.764,140.213 106.803,141.145 107.499 C 142.106 108.216,142.172 108.214,143.765 107.417 C 145.348 106.626,146.155 106.596,168.901 106.485 L 192.401 106.370 193.017 105.430 C 194.073 103.818,193.706 61.359,192.629 60.572 C 191.578 59.803,92.443 59.717,91.676 60.484 M244.300 60.676 C 243.647 60.846,243.117 105.600,243.767 105.600 C 243.859 105.600,244.206 105.704,244.537 105.831 C 245.069 106.035,245.145 103.390,245.184 83.231 C 245.208 70.674,245.176 60.421,245.114 60.446 C 245.051 60.472,244.685 60.575,244.300 60.676 M191.800 209.234 C 191.487 210.305,191.162 210.627,190.300 210.727 C 189.578 210.810,189.200 211.088,189.200 211.538 C 189.200 212.648,188.025 214.000,187.060 214.000 C 186.396 214.000,186.067 214.335,185.783 215.300 C 185.470 216.362,185.171 216.622,184.152 216.721 C 183.133 216.821,182.837 217.078,182.542 218.121 C 182.275 219.068,181.855 219.497,180.928 219.772 C 180.015 220.043,179.580 220.478,179.328 221.372 C 179.078 222.258,178.639 222.702,177.754 222.965 C 176.943 223.206,176.378 223.724,176.088 224.490 C 175.828 225.181,175.181 225.828,174.490 226.088 C 173.724 226.378,173.206 226.943,172.965 227.754 C 172.699 228.649,172.259 229.077,171.341 229.337 C 170.410 229.600,170.023 229.983,169.858 230.809 C 169.692 231.641,169.283 232.043,168.256 232.381 C 167.354 232.679,166.797 233.158,166.644 233.768 C 166.508 234.311,165.890 234.914,165.161 235.216 C 164.418 235.524,163.757 236.178,163.530 236.829 C 163.306 237.471,162.644 238.133,161.930 238.429 C 161.212 238.726,160.554 239.387,160.327 240.038 C 160.099 240.691,159.491 241.299,158.838 241.527 C 158.181 241.756,157.526 242.414,157.221 243.150 C 156.864 244.012,156.312 244.497,155.403 244.748 C 154.083 245.113,150.000 248.749,150.000 249.560 C 150.000 249.802,149.770 250.000,149.489 250.000 C 149.208 250.000,148.706 250.315,148.373 250.700 C 148.040 251.085,147.156 251.913,146.407 252.539 C 145.266 253.494,145.043 253.948,145.032 255.339 C 145.025 256.253,145.060 266.495,145.109 278.100 L 145.200 299.200 168.775 299.200 L 192.351 299.200 192.624 297.382 C 193.075 294.372,192.265 207.648,191.800 209.234 " stroke="none" fill="#124e70" fill-rule="evenodd"></path><path id="path2" d="M397.104 106.200 C 396.942 107.080,396.807 118.072,396.804 130.627 C 396.799 156.349,396.655 158.006,394.472 157.371 C 393.883 157.199,383.275 156.995,370.900 156.917 L 348.400 156.775 348.399 179.487 C 348.397 201.480,348.372 202.241,347.599 203.510 C 346.576 205.187,346.531 206.217,347.500 205.743 C 347.885 205.554,358.821 205.348,371.802 205.285 L 395.405 205.170 396.402 203.715 L 397.400 202.260 397.600 178.630 C 397.839 150.406,397.521 103.945,397.104 106.200 M344.800 109.501 L 346.200 110.200 346.200 132.700 C 346.200 150.667,346.303 155.200,346.710 155.200 C 347.861 155.200,348.000 152.742,348.000 132.354 C 348.000 108.314,348.073 108.799,344.467 108.801 C 343.438 108.801,343.449 108.826,344.800 109.501 M144.709 156.900 C 144.121 157.939,144.336 202.592,144.934 203.517 C 145.201 203.930,150.002 204.023,169.015 203.981 C 182.075 203.952,192.927 204.031,193.130 204.156 C 193.865 204.611,193.991 201.018,193.996 179.570 L 194.000 157.739 193.074 156.870 L 192.148 156.000 168.683 156.000 L 145.218 156.000 144.709 156.900 M396.285 159.600 C 397.116 161.251,397.015 201.514,396.177 202.711 L 395.555 203.600 373.431 203.600 C 351.655 203.600,351.291 203.587,350.254 202.771 C 348.684 201.536,349.128 199.200,350.932 199.200 C 351.256 199.200,351.889 198.576,352.339 197.813 C 352.806 197.022,353.603 196.314,354.193 196.166 C 354.863 195.998,355.426 195.434,355.788 194.567 C 356.140 193.725,356.715 193.136,357.339 192.980 C 357.949 192.826,358.426 192.349,358.580 191.739 C 358.736 191.115,359.325 190.540,360.167 190.188 C 361.036 189.825,361.598 189.263,361.767 188.588 C 361.937 187.911,362.499 187.351,363.375 186.985 C 364.115 186.675,365.108 185.797,365.580 185.032 C 366.053 184.267,366.771 183.536,367.177 183.407 C 367.582 183.279,368.005 182.824,368.117 182.397 C 368.228 181.970,368.949 181.249,369.717 180.796 C 370.485 180.343,371.205 179.623,371.317 179.196 C 371.429 178.769,372.150 178.048,372.921 177.594 C 373.691 177.139,374.428 176.343,374.558 175.824 C 374.703 175.246,375.262 174.717,376.000 174.460 C 376.684 174.221,377.369 173.607,377.586 173.037 C 377.834 172.386,378.780 171.633,380.284 170.892 C 381.558 170.264,382.803 169.344,383.051 168.847 C 383.299 168.351,383.883 167.677,384.350 167.350 C 384.816 167.024,387.043 164.879,389.299 162.585 C 393.811 157.996,395.183 157.410,396.285 159.600 M142.806 227.611 C 142.801 246.568,142.735 248.719,142.132 249.611 L 141.464 250.600 142.532 249.630 L 143.600 248.661 143.594 228.230 C 143.590 215.731,143.437 207.567,143.200 207.200 C 142.947 206.808,142.810 213.898,142.806 227.611 M191.841 304.128 C 189.147 305.396,185.961 308.002,181.000 312.991 C 178.360 315.646,174.972 318.895,173.470 320.209 C 171.969 321.524,168.522 324.760,165.810 327.400 C 160.115 332.944,151.909 340.725,150.834 341.600 C 150.428 341.930,150.030 342.400,149.948 342.644 C 149.748 343.246,146.053 346.400,145.549 346.400 C 143.527 346.400,143.600 347.202,143.600 325.035 C 143.600 309.093,143.488 304.405,143.100 304.083 C 142.701 303.751,142.623 307.836,142.715 324.334 C 142.828 344.602,142.814 345.032,141.996 346.683 C 141.190 348.308,141.182 348.471,141.780 351.366 C 142.293 353.848,142.400 357.918,142.400 374.921 C 142.400 397.444,142.240 395.891,144.692 397.158 C 145.663 397.660,242.071 397.855,243.368 397.357 C 243.980 397.122,243.966 397.015,243.209 396.209 C 242.343 395.288,242.117 352.037,242.963 349.167 L 243.267 348.135 241.134 348.438 C 239.960 348.605,229.149 348.755,217.109 348.771 L 195.218 348.800 194.509 347.718 C 193.859 346.726,193.783 344.838,193.600 325.015 L 193.400 303.393 191.841 304.128 M238.520 350.764 C 241.589 351.268,241.628 351.647,238.883 354.350 C 237.545 355.667,236.080 356.943,235.626 357.186 C 235.171 357.429,234.800 357.898,234.800 358.228 C 234.800 358.557,234.198 359.182,233.463 359.616 C 232.728 360.050,231.926 360.845,231.681 361.383 C 231.435 361.921,230.700 362.638,230.046 362.976 C 229.392 363.315,228.740 363.960,228.597 364.411 C 228.454 364.861,227.631 365.676,226.768 366.220 C 225.906 366.765,225.200 367.482,225.200 367.815 C 225.200 368.148,224.390 368.909,223.400 369.507 C 222.410 370.105,221.600 370.820,221.600 371.097 C 221.600 371.374,221.434 371.600,221.231 371.600 C 220.750 371.600,218.400 373.950,218.400 374.431 C 218.400 374.634,218.246 374.800,218.058 374.800 C 217.548 374.800,215.600 376.696,215.600 377.193 C 215.600 377.431,215.312 377.736,214.960 377.871 C 214.136 378.187,212.587 379.736,212.271 380.560 C 212.136 380.912,211.749 381.200,211.413 381.200 C 211.076 381.200,210.800 381.380,210.800 381.600 C 210.800 381.820,210.455 382.000,210.034 382.000 C 209.613 382.000,208.758 382.558,208.134 383.241 C 207.510 383.923,206.426 384.731,205.724 385.036 C 205.022 385.341,204.212 386.082,203.924 386.684 C 203.636 387.285,202.950 387.998,202.400 388.269 C 201.850 388.539,201.117 389.265,200.772 389.880 C 200.426 390.496,199.661 391.235,199.072 391.522 C 198.482 391.809,198.000 392.247,198.000 392.496 C 198.000 393.121,196.371 394.800,195.764 394.800 C 195.490 394.800,195.207 394.943,195.133 395.117 C 195.060 395.291,194.349 395.831,193.553 396.317 L 192.106 397.200 168.753 397.199 C 146.118 397.197,145.360 397.172,144.090 396.398 L 142.780 395.600 142.890 373.820 C 143.013 349.468,142.775 351.171,146.110 350.767 C 149.172 350.396,236.259 350.394,238.520 350.764 " stroke="none" fill="#b6b934" fill-rule="evenodd"></path><path id="path3" d="M245.700 59.456 C 243.799 60.257,247.370 60.400,269.300 60.404 C 295.659 60.409,296.284 60.442,296.825 61.865 C 297.023 62.387,297.630 62.983,298.174 63.190 C 298.717 63.397,299.445 64.113,299.791 64.783 C 300.137 65.452,300.596 66.000,300.810 66.000 C 301.025 66.000,302.982 67.818,305.160 70.040 C 307.338 72.262,309.273 74.234,309.460 74.423 C 309.647 74.611,310.726 75.628,311.858 76.683 C 317.096 81.562,324.770 89.197,325.151 89.908 C 325.383 90.341,326.164 90.981,326.886 91.331 C 327.609 91.680,330.678 94.476,333.707 97.544 C 336.910 100.789,339.922 103.474,340.907 103.961 C 341.838 104.422,342.510 104.840,342.400 104.890 C 342.290 104.940,331.490 105.118,318.400 105.285 C 261.896 106.005,245.394 106.238,245.300 106.317 C 245.245 106.363,245.200 106.895,245.200 107.500 L 245.200 108.600 269.700 108.514 C 284.943 108.460,295.409 108.260,297.400 107.984 C 300.893 107.501,341.884 107.663,344.400 108.170 C 347.211 108.738,347.273 108.187,347.217 82.939 C 347.185 68.332,347.029 60.876,346.749 60.539 C 346.423 60.146,340.750 59.985,321.265 59.817 C 268.117 59.358,246.181 59.253,245.700 59.456 M269.085 156.394 C 248.063 156.572,244.718 156.681,244.386 157.200 C 244.145 157.576,244.078 166.468,244.207 181.000 C 244.519 216.139,244.517 247.163,244.201 274.200 C 243.936 296.945,243.966 298.797,244.638 301.500 L 245.360 304.400 267.247 304.400 C 290.712 304.400,291.422 304.342,293.120 302.296 C 293.641 301.669,292.887 297.209,291.973 295.505 C 291.768 295.123,291.600 294.462,291.600 294.036 C 291.600 293.506,291.159 293.116,290.200 292.800 C 289.430 292.546,288.800 292.082,288.800 291.769 C 288.800 290.782,287.346 289.695,285.641 289.407 C 284.736 289.254,284.094 288.971,284.214 288.778 C 284.333 288.584,284.064 288.197,283.616 287.917 C 283.167 287.637,282.800 287.200,282.800 286.947 C 282.800 286.394,281.882 286.000,280.593 286.000 C 279.822 286.000,279.628 285.763,279.525 284.700 C 279.411 283.517,279.267 283.389,277.923 283.277 C 276.535 283.162,276.438 283.065,276.323 281.677 C 276.211 280.333,276.083 280.189,274.900 280.075 C 273.781 279.967,273.600 279.797,273.600 278.855 C 273.600 277.458,272.934 276.800,271.520 276.800 C 270.627 276.800,270.399 276.618,270.394 275.900 C 270.383 274.316,269.825 273.932,267.100 273.633 C 266.935 273.615,266.800 272.970,266.800 272.200 C 266.800 270.908,266.707 270.800,265.587 270.800 C 264.364 270.800,264.258 270.674,263.832 268.725 C 263.646 267.871,263.335 267.625,262.322 267.525 C 261.262 267.421,260.990 267.182,260.714 266.109 C 260.459 265.118,260.091 264.743,259.128 264.493 C 258.218 264.258,257.836 263.899,257.733 263.184 C 257.485 261.468,257.254 261.200,256.024 261.200 C 255.004 261.200,254.772 261.004,254.488 259.900 C 254.242 258.946,253.893 258.563,253.176 258.462 C 251.834 258.272,251.269 257.728,251.124 256.487 C 251.038 255.756,250.692 255.347,250.000 255.156 C 249.450 255.004,258.752 254.862,270.671 254.840 L 292.342 254.800 293.571 253.309 L 294.800 251.818 294.783 231.609 C 294.773 220.494,294.604 210.590,294.408 209.600 C 294.056 207.827,294.077 207.773,295.830 206.000 L 297.610 204.200 321.545 204.091 L 345.480 203.982 345.940 202.972 C 346.612 201.497,346.504 200.130,345.650 199.316 C 345.237 198.922,344.770 198.179,344.611 197.663 C 344.445 197.124,343.746 196.486,342.961 196.158 C 342.115 195.805,341.600 195.312,341.600 194.857 C 341.600 193.901,340.503 192.936,339.000 192.570 C 337.774 192.271,332.800 187.684,332.800 186.852 C 332.800 186.603,332.652 186.400,332.472 186.400 C 331.941 186.400,329.600 184.170,329.600 183.664 C 329.600 183.409,329.338 183.200,329.018 183.200 C 328.356 183.200,326.639 181.600,326.271 180.640 C 326.136 180.288,325.749 180.000,325.413 180.000 C 325.076 180.000,324.800 179.770,324.800 179.489 C 324.800 178.675,322.409 176.800,321.370 176.800 C 320.637 176.800,320.347 176.507,320.088 175.500 C 319.832 174.503,319.509 174.171,318.706 174.076 C 317.472 173.930,316.928 173.363,316.738 172.024 C 316.637 171.307,316.254 170.958,315.300 170.712 C 314.297 170.454,314.000 170.162,314.000 169.438 C 314.000 168.347,313.438 167.815,311.900 167.448 C 311.176 167.275,310.800 166.924,310.800 166.421 C 310.800 165.366,309.735 164.400,308.571 164.400 C 307.815 164.400,307.600 164.189,307.600 163.449 C 307.600 162.338,307.021 161.771,305.498 161.389 C 304.704 161.190,304.400 160.862,304.400 160.206 C 304.400 159.028,303.869 158.665,301.200 158.015 C 299.990 157.721,298.220 157.147,297.267 156.740 C 296.314 156.333,295.054 156.042,294.467 156.094 C 293.880 156.145,282.458 156.280,269.085 156.394 M294.386 158.774 C 294.656 159.279,294.800 166.841,294.800 180.563 L 294.800 201.579 293.620 202.190 C 291.052 203.518,245.121 202.859,245.513 201.500 C 245.561 201.335,245.601 200.975,245.603 200.700 C 245.604 200.425,246.220 199.781,246.972 199.269 C 247.724 198.758,248.758 197.724,249.269 196.972 C 249.781 196.220,250.407 195.604,250.660 195.603 C 250.914 195.601,251.495 194.966,251.953 194.190 C 252.410 193.415,253.103 192.664,253.492 192.521 C 253.881 192.377,254.826 191.752,255.591 191.130 C 256.356 190.509,257.217 190.000,257.505 190.000 C 257.792 190.000,258.382 189.398,258.816 188.663 C 259.250 187.928,260.045 187.126,260.583 186.881 C 261.121 186.635,261.845 185.887,262.191 185.217 C 262.537 184.548,262.988 184.000,263.192 184.000 C 263.683 184.000,267.745 180.023,268.298 179.000 C 268.536 178.560,269.422 177.843,270.266 177.407 C 271.110 176.972,274.179 174.290,277.086 171.449 C 279.993 168.607,282.873 165.904,283.486 165.441 C 284.099 164.979,285.327 163.835,286.216 162.900 C 287.105 161.965,288.045 161.200,288.306 161.200 C 288.566 161.200,289.054 160.669,289.390 160.020 C 290.467 157.937,293.529 157.173,294.386 158.774 " stroke="none" fill="#9a1f53" fill-rule="evenodd"></path><path id="path4" d="M54.600 4.321 C 53.817 4.986,53.802 5.421,53.914 25.257 L 54.028 45.514 55.988 46.357 C 58.186 47.302,98.833 47.717,99.400 46.800 C 99.564 46.535,92.680 46.400,79.050 46.400 C 66.634 46.400,58.044 46.245,57.426 46.010 L 56.400 45.620 56.383 26.910 C 56.363 6.317,56.105 3.042,54.600 4.321 M191.748 59.585 C 191.647 59.686,191.977 60.081,192.482 60.462 L 193.400 61.154 193.516 82.822 C 193.619 101.934,193.559 104.603,193.007 105.445 L 192.382 106.400 169.691 106.440 C 146.047 106.481,145.419 106.516,144.561 107.808 C 144.038 108.595,144.184 108.599,168.718 108.411 C 182.293 108.306,204.696 108.216,218.503 108.211 L 243.606 108.200 243.503 84.000 L 243.400 59.800 217.666 59.600 C 203.513 59.490,191.850 59.483,191.748 59.585 M41.525 60.139 C 40.410 60.986,40.327 94.941,41.437 95.934 C 42.140 96.564,43.587 96.602,59.795 96.409 L 77.390 96.200 77.995 95.000 C 78.500 93.999,78.619 91.066,78.717 77.319 L 78.833 60.838 77.636 60.219 C 76.011 59.378,42.623 59.304,41.525 60.139 M41.369 106.991 C 40.080 108.959,39.780 119.779,39.990 156.700 C 39.997 157.879,40.170 158.400,40.555 158.400 C 41.022 158.400,41.122 154.619,41.180 134.700 C 41.218 121.665,41.380 110.370,41.541 109.600 L 41.832 108.200 65.816 107.971 C 79.007 107.845,89.845 107.710,89.900 107.671 C 91.915 106.239,88.200 106.006,63.309 106.003 L 42.018 106.000 41.369 106.991 M91.154 155.661 C 90.718 156.718,90.551 161.754,90.357 179.600 C 90.221 192.030,89.980 202.840,89.821 203.622 C 89.325 206.055,91.818 207.175,93.876 205.443 L 95.079 204.431 118.375 204.315 L 141.671 204.200 142.436 203.256 C 143.540 201.892,143.638 157.662,142.539 156.749 C 142.001 156.302,137.404 156.163,117.839 156.000 C 95.364 155.812,92.614 155.673,91.953 154.691 C 91.816 154.488,91.457 154.925,91.154 155.661 " stroke="none" fill="#1fa7df" fill-rule="evenodd"></path><path id="path5" d="M245.113 82.500 C 245.051 94.655,245.057 104.960,245.127 105.400 C 245.271 106.299,291.545 106.482,294.160 105.594 C 294.868 105.353,304.240 105.200,318.227 105.200 C 342.694 105.200,343.337 105.163,340.815 103.916 C 339.934 103.480,336.736 100.613,333.707 97.544 C 330.678 94.476,327.609 91.680,326.886 91.331 C 326.164 90.981,325.383 90.341,325.151 89.908 C 324.770 89.197,317.096 81.562,311.858 76.683 C 310.726 75.628,309.647 74.611,309.460 74.423 C 309.273 74.234,307.338 72.262,305.160 70.040 C 302.982 67.818,301.025 66.000,300.810 66.000 C 300.596 66.000,300.137 65.452,299.791 64.783 C 299.445 64.113,298.717 63.397,298.174 63.190 C 297.630 62.983,297.023 62.387,296.825 61.865 C 296.284 60.442,295.659 60.409,269.313 60.404 L 245.226 60.400 245.113 82.500 M290.700 158.432 C 290.315 158.656,289.725 159.371,289.390 160.020 C 289.054 160.669,288.566 161.200,288.306 161.200 C 288.045 161.200,287.105 161.965,286.216 162.900 C 285.327 163.835,284.099 164.979,283.486 165.441 C 282.873 165.904,279.993 168.607,277.086 171.449 C 274.179 174.290,271.110 176.972,270.266 177.407 C 269.422 177.843,268.536 178.560,268.298 179.000 C 267.745 180.023,263.683 184.000,263.192 184.000 C 262.988 184.000,262.537 184.548,262.191 185.217 C 261.845 185.887,261.121 186.635,260.583 186.881 C 260.045 187.126,259.250 187.928,258.816 188.663 C 258.382 189.398,257.792 190.000,257.505 190.000 C 257.217 190.000,256.356 190.509,255.591 191.130 C 254.826 191.752,253.881 192.377,253.492 192.521 C 253.103 192.664,252.410 193.415,251.953 194.190 C 251.495 194.966,250.914 195.601,250.660 195.603 C 250.407 195.604,249.781 196.220,249.269 196.972 C 248.758 197.724,247.724 198.758,246.972 199.269 C 246.220 199.781,245.604 200.425,245.603 200.700 C 245.601 200.975,245.561 201.335,245.513 201.500 C 245.121 202.859,291.052 203.518,293.620 202.190 L 294.800 201.579 294.800 180.563 C 294.800 166.841,294.656 159.279,294.386 158.774 C 293.927 157.917,291.906 157.730,290.700 158.432 " stroke="none" fill="#5f152d" fill-rule="evenodd"></path><path id="path6" d="M347.475 59.889 C 346.637 60.015,346.455 60.184,346.760 60.552 C 347.666 61.643,347.371 104.750,346.443 106.800 C 345.652 108.547,345.650 108.618,346.367 109.200 C 347.972 110.502,348.000 110.906,348.000 132.348 C 348.000 152.742,347.861 155.200,346.710 155.200 C 346.121 155.200,346.167 202.100,346.758 203.697 C 347.074 204.553,347.107 204.541,347.743 203.311 C 348.330 202.176,348.400 199.621,348.400 179.407 L 348.400 156.775 370.900 156.917 C 383.275 156.995,393.872 157.197,394.448 157.366 C 396.723 158.033,396.819 155.627,397.412 82.908 L 397.592 60.816 396.416 60.208 C 395.294 59.628,351.127 59.340,347.475 59.889 M389.299 162.585 C 387.043 164.879,384.816 167.024,384.350 167.350 C 383.883 167.677,383.299 168.351,383.051 168.847 C 382.803 169.344,381.558 170.264,380.284 170.892 C 378.780 171.633,377.834 172.386,377.586 173.037 C 377.369 173.607,376.684 174.221,376.000 174.460 C 375.262 174.717,374.703 175.246,374.558 175.824 C 374.428 176.343,373.691 177.139,372.921 177.594 C 372.150 178.048,371.429 178.769,371.317 179.196 C 371.205 179.623,370.485 180.343,369.717 180.796 C 368.949 181.249,368.228 181.970,368.117 182.397 C 368.005 182.824,367.582 183.279,367.177 183.407 C 366.771 183.536,366.053 184.267,365.580 185.032 C 365.108 185.797,364.115 186.675,363.375 186.985 C 362.499 187.351,361.937 187.911,361.767 188.588 C 361.598 189.263,361.036 189.825,360.167 190.188 C 359.325 190.540,358.736 191.115,358.580 191.739 C 358.426 192.349,357.949 192.826,357.339 192.980 C 356.715 193.136,356.140 193.725,355.788 194.567 C 355.426 195.434,354.863 195.998,354.193 196.166 C 353.603 196.314,352.806 197.022,352.339 197.813 C 351.889 198.576,351.256 199.200,350.932 199.200 C 349.128 199.200,348.684 201.536,350.254 202.771 C 351.291 203.587,351.655 203.600,373.431 203.600 L 395.555 203.600 396.177 202.711 C 397.015 201.514,397.116 161.251,396.285 159.600 C 395.183 157.410,393.811 157.996,389.299 162.585 M242.861 350.122 C 242.541 351.394,242.400 358.603,242.400 373.707 L 242.400 395.461 243.349 396.352 C 244.184 397.136,244.328 397.165,244.549 396.589 C 245.247 394.770,244.777 351.020,244.045 349.645 L 243.323 348.290 242.861 350.122 M146.110 350.767 C 142.775 351.171,143.013 349.468,142.890 373.820 L 142.780 395.600 144.090 396.398 C 145.360 397.172,146.118 397.197,168.753 397.199 L 192.106 397.200 193.553 396.317 C 194.349 395.831,195.060 395.291,195.133 395.117 C 195.207 394.943,195.490 394.800,195.764 394.800 C 196.371 394.800,198.000 393.121,198.000 392.496 C 198.000 392.247,198.482 391.809,199.072 391.522 C 199.661 391.235,200.426 390.496,200.772 389.880 C 201.117 389.265,201.850 388.539,202.400 388.269 C 202.950 387.998,203.636 387.285,203.924 386.684 C 204.212 386.082,205.022 385.341,205.724 385.036 C 206.426 384.731,207.510 383.923,208.134 383.241 C 208.758 382.558,209.613 382.000,210.034 382.000 C 210.455 382.000,210.800 381.820,210.800 381.600 C 210.800 381.380,211.076 381.200,211.413 381.200 C 211.749 381.200,212.136 380.912,212.271 380.560 C 212.587 379.736,214.136 378.187,214.960 377.871 C 215.312 377.736,215.600 377.431,215.600 377.193 C 215.600 376.696,217.548 374.800,218.058 374.800 C 218.246 374.800,218.400 374.634,218.400 374.431 C 218.400 373.950,220.750 371.600,221.231 371.600 C 221.434 371.600,221.600 371.374,221.600 371.097 C 221.600 370.820,222.410 370.105,223.400 369.507 C 224.390 368.909,225.200 368.148,225.200 367.815 C 225.200 367.482,225.906 366.765,226.768 366.220 C 227.631 365.676,228.454 364.861,228.597 364.411 C 228.740 363.960,229.392 363.315,230.046 362.976 C 230.700 362.638,231.435 361.921,231.681 361.383 C 231.926 360.845,232.728 360.050,233.463 359.616 C 234.198 359.182,234.800 358.557,234.800 358.228 C 234.800 357.898,235.171 357.429,235.626 357.186 C 236.080 356.943,237.545 355.667,238.883 354.350 C 241.628 351.647,241.589 351.268,238.520 350.764 C 236.259 350.394,149.172 350.396,146.110 350.767 " stroke="none" fill="#ee6827" fill-rule="evenodd"></path><path id="path7" d="M296.600 59.667 C 298.231 59.877,319.369 59.919,347.240 59.768 C 383.438 59.571,395.313 59.621,396.040 59.976 C 396.950 60.420,396.960 60.412,396.224 59.822 C 395.530 59.266,390.053 59.206,344.624 59.253 C 312.306 59.286,294.820 59.437,296.600 59.667 M298.234 107.900 C 298.069 108.065,286.564 108.297,272.667 108.415 C 252.854 108.584,258.020 108.641,296.600 108.676 C 338.707 108.715,345.512 108.643,343.800 108.179 C 341.595 107.580,298.815 107.318,298.234 107.900 M269.967 155.484 L 245.334 155.606 244.471 156.525 L 243.608 157.443 243.596 253.126 C 243.585 338.603,243.650 348.936,244.201 350.002 C 244.738 351.040,244.815 354.219,244.790 374.298 L 244.762 397.400 268.481 397.511 C 293.818 397.629,293.432 397.646,294.897 396.341 C 295.800 395.536,295.830 395.383,295.350 394.040 C 294.536 391.764,294.577 351.595,295.394 349.860 C 295.889 348.808,296.018 344.870,296.173 326.000 C 296.275 313.570,296.389 302.590,296.427 301.600 C 296.465 300.610,296.287 298.734,296.031 297.431 C 295.702 295.750,295.611 288.886,295.718 273.831 C 295.975 237.697,295.986 212.289,295.744 210.199 C 295.526 208.310,295.591 208.121,296.900 206.842 L 298.286 205.486 320.358 205.569 C 338.642 205.639,342.668 205.753,343.824 206.236 C 345.707 207.022,346.802 206.451,346.794 204.686 C 346.786 202.941,346.185 201.987,345.820 203.138 L 345.552 203.982 321.581 204.091 L 297.610 204.200 295.830 206.000 C 294.077 207.773,294.056 207.827,294.408 209.600 C 294.604 210.590,294.773 220.494,294.783 231.609 L 294.800 251.818 293.571 253.309 L 292.342 254.800 270.671 254.840 C 258.752 254.862,249.450 255.004,250.000 255.156 C 250.657 255.338,251.047 255.770,251.138 256.416 C 251.328 257.763,251.870 258.330,253.106 258.476 C 253.909 258.571,254.232 258.903,254.488 259.900 C 254.772 261.004,255.004 261.200,256.024 261.200 C 257.254 261.200,257.485 261.468,257.733 263.184 C 257.836 263.899,258.218 264.258,259.128 264.493 C 260.091 264.743,260.459 265.118,260.714 266.109 C 260.990 267.182,261.262 267.421,262.322 267.525 C 263.335 267.625,263.646 267.871,263.832 268.725 C 264.258 270.674,264.364 270.800,265.587 270.800 C 266.707 270.800,266.800 270.908,266.800 272.200 C 266.800 272.970,266.935 273.615,267.100 273.633 C 269.825 273.932,270.383 274.316,270.394 275.900 C 270.399 276.618,270.627 276.800,271.520 276.800 C 272.934 276.800,273.600 277.458,273.600 278.855 C 273.600 279.797,273.781 279.967,274.900 280.075 C 276.083 280.189,276.211 280.333,276.323 281.677 C 276.438 283.065,276.535 283.162,277.923 283.277 C 279.267 283.389,279.411 283.517,279.525 284.700 C 279.628 285.763,279.822 286.000,280.593 286.000 C 281.882 286.000,282.800 286.394,282.800 286.947 C 282.800 287.200,283.167 287.637,283.616 287.917 C 284.064 288.197,284.333 288.584,284.214 288.778 C 284.094 288.971,284.736 289.254,285.641 289.407 C 287.346 289.695,288.800 290.782,288.800 291.769 C 288.800 292.082,289.430 292.546,290.200 292.800 C 291.159 293.116,291.600 293.506,291.600 294.036 C 291.600 294.462,291.768 295.123,291.973 295.505 C 292.887 297.209,293.641 301.669,293.120 302.296 C 291.422 304.342,290.712 304.400,267.247 304.400 L 245.360 304.400 244.638 301.500 C 243.966 298.797,243.936 296.945,244.201 274.200 C 244.517 247.163,244.519 216.139,244.207 181.000 C 244.078 166.474,244.145 157.576,244.386 157.200 C 244.994 156.250,295.075 155.910,297.400 156.840 C 298.280 157.192,299.990 157.721,301.200 158.015 C 303.869 158.665,304.400 159.028,304.400 160.206 C 304.400 160.862,304.704 161.190,305.498 161.389 C 307.021 161.771,307.600 162.338,307.600 163.449 C 307.600 164.189,307.815 164.400,308.571 164.400 C 309.735 164.400,310.800 165.366,310.800 166.421 C 310.800 166.924,311.176 167.275,311.900 167.448 C 313.438 167.815,314.000 168.347,314.000 169.438 C 314.000 170.162,314.297 170.454,315.300 170.712 C 316.297 170.968,316.629 171.291,316.724 172.094 C 316.870 173.328,317.437 173.872,318.776 174.062 C 319.493 174.163,319.842 174.546,320.088 175.500 C 320.347 176.506,320.637 176.800,321.370 176.800 C 322.409 176.800,324.800 178.675,324.800 179.489 C 324.800 179.770,325.076 180.000,325.413 180.000 C 325.749 180.000,326.136 180.288,326.271 180.640 C 326.639 181.600,328.356 183.200,329.018 183.200 C 329.338 183.200,329.600 183.409,329.600 183.664 C 329.600 184.170,331.941 186.400,332.472 186.400 C 332.652 186.400,332.800 186.603,332.800 186.852 C 332.800 187.684,337.774 192.271,339.000 192.570 C 340.503 192.936,341.600 193.901,341.600 194.857 C 341.600 195.312,342.115 195.805,342.961 196.158 C 343.746 196.486,344.445 197.124,344.611 197.663 C 344.770 198.179,345.237 198.922,345.650 199.316 C 346.383 200.015,346.400 199.552,346.400 178.866 C 346.400 157.182,346.303 154.998,345.353 155.363 C 344.743 155.597,298.662 155.733,296.200 155.508 C 295.320 155.427,283.515 155.417,269.967 155.484 " stroke="none" fill="#d12a8b" fill-rule="evenodd"></path><path id="path8" d="M56.500 3.206 C 55.907 3.449,55.600 3.913,55.600 4.569 L 55.600 5.564 56.582 4.582 L 57.564 3.600 78.395 3.600 C 95.680 3.600,99.462 3.699,100.613 4.180 L 102.000 4.759 102.004 23.680 C 102.007 34.086,102.120 43.275,102.257 44.100 C 102.494 45.533,102.449 45.610,101.244 45.851 C 100.551 45.990,99.886 46.260,99.768 46.452 C 99.458 46.954,100.986 46.880,102.181 46.336 L 103.200 45.872 103.200 25.145 L 103.200 4.418 102.118 3.709 C 100.894 2.907,58.376 2.437,56.500 3.206 M3.305 28.700 C 2.133 29.748,2.442 51.642,3.646 52.846 C 5.680 54.880,31.292 53.613,30.861 51.500 C 30.828 51.335,30.800 46.340,30.800 40.400 C 30.800 31.067,30.719 29.600,30.200 29.600 C 29.870 29.600,29.600 29.449,29.600 29.264 C 29.600 27.783,4.924 27.254,3.305 28.700 M27.620 29.010 L 28.800 29.621 28.800 40.600 L 28.800 51.579 27.620 52.190 C 26.018 53.018,4.751 53.105,4.072 52.286 C 3.547 51.654,3.339 29.695,3.852 29.201 C 4.871 28.223,25.773 28.055,27.620 29.010 M92.529 59.462 C 90.572 59.881,90.606 59.485,90.509 83.162 C 90.459 95.393,90.303 105.805,90.162 106.300 C 89.973 106.968,90.074 107.200,90.553 107.200 C 91.141 107.200,91.200 105.103,91.200 84.049 C 91.200 64.741,91.293 60.821,91.758 60.435 C 92.168 60.095,99.023 59.980,117.658 60.000 C 167.449 60.055,191.731 59.997,191.557 59.824 C 191.318 59.584,93.625 59.227,92.529 59.462 M243.784 60.027 C 243.639 60.261,243.620 60.553,243.743 60.676 C 244.072 61.005,245.200 60.491,245.200 60.013 C 245.200 59.470,244.121 59.480,243.784 60.027 M243.600 107.000 C 243.600 107.770,243.675 108.400,243.767 108.400 C 243.859 108.400,244.219 108.509,244.567 108.643 C 245.070 108.836,245.200 108.598,245.200 107.486 C 245.200 106.578,244.977 106.000,244.567 105.843 C 243.615 105.477,243.600 105.495,243.600 107.000 M115.782 106.797 C 89.900 107.027,91.075 106.874,90.599 110.092 C 90.182 112.918,90.551 154.127,91.000 154.800 C 91.270 155.205,91.465 147.933,91.600 132.405 L 91.800 109.411 93.000 108.805 C 94.826 107.884,138.632 107.686,140.381 108.590 C 142.212 109.537,143.430 109.362,144.389 108.015 L 145.233 106.830 144.016 107.254 C 143.346 107.488,142.699 107.839,142.578 108.036 C 142.457 108.232,141.872 108.049,141.279 107.630 C 139.740 106.542,140.742 106.575,115.782 106.797 M143.200 179.672 C 143.200 196.015,143.074 202.093,142.713 203.090 C 142.305 204.217,142.338 204.754,142.913 206.373 C 143.528 208.104,143.600 210.424,143.600 228.401 L 143.600 248.494 142.452 249.802 C 141.084 251.360,140.592 253.914,141.175 256.440 C 141.421 257.509,141.584 266.541,141.590 279.440 C 141.600 300.830,141.697 302.451,143.057 304.031 C 143.499 304.546,143.600 308.460,143.600 325.117 C 143.600 347.193,143.527 346.400,145.549 346.400 C 146.053 346.400,149.748 343.246,149.948 342.644 C 150.030 342.400,150.428 341.930,150.834 341.600 C 151.909 340.725,160.115 332.944,165.810 327.400 C 168.522 324.760,171.969 321.524,173.470 320.209 C 174.972 318.895,178.360 315.646,181.000 312.991 C 185.956 308.006,189.447 305.157,191.810 304.170 C 194.339 303.113,194.189 305.992,194.324 256.000 C 194.392 230.810,194.334 209.092,194.196 207.739 C 193.769 203.556,196.295 203.944,169.000 203.867 L 145.036 203.800 144.758 202.800 C 144.605 202.250,144.462 192.140,144.440 180.333 C 144.418 168.526,144.291 158.581,144.157 158.233 C 143.353 156.136,143.200 159.551,143.200 179.672 M40.401 180.300 C 40.403 201.322,40.434 202.251,41.185 203.482 L 41.966 204.764 65.083 204.882 C 77.797 204.947,88.466 205.090,88.791 205.200 C 89.176 205.330,89.429 205.087,89.518 204.500 L 89.656 203.600 65.818 203.600 L 41.980 203.600 41.590 202.574 C 41.354 201.953,41.200 193.024,41.200 179.974 C 41.200 165.858,41.062 158.400,40.800 158.400 C 40.538 158.400,40.401 165.966,40.401 180.300 M192.624 297.382 L 192.351 299.200 168.775 299.200 L 145.200 299.200 145.109 278.100 C 145.060 266.495,145.025 256.253,145.032 255.339 C 145.043 253.948,145.266 253.494,146.407 252.539 C 147.156 251.913,148.040 251.085,148.373 250.700 C 148.706 250.315,149.208 250.000,149.489 250.000 C 149.770 250.000,150.000 249.802,150.000 249.560 C 150.000 248.749,154.083 245.113,155.403 244.748 C 156.312 244.497,156.864 244.012,157.221 243.150 C 157.526 242.414,158.181 241.756,158.838 241.527 C 159.491 241.299,160.099 240.691,160.327 240.038 C 160.554 239.387,161.212 238.726,161.930 238.429 C 162.644 238.133,163.306 237.471,163.530 236.829 C 163.757 236.178,164.418 235.524,165.161 235.216 C 165.890 234.914,166.508 234.311,166.644 233.768 C 166.797 233.158,167.354 232.679,168.256 232.381 C 169.283 232.043,169.692 231.641,169.858 230.809 C 170.023 229.983,170.410 229.600,171.341 229.337 C 172.259 229.077,172.699 228.649,172.965 227.754 C 173.206 226.943,173.724 226.378,174.490 226.088 C 175.181 225.828,175.828 225.181,176.088 224.490 C 176.378 223.724,176.943 223.206,177.754 222.965 C 178.639 222.702,179.078 222.258,179.328 221.372 C 179.580 220.478,180.015 220.043,180.928 219.772 C 181.855 219.497,182.275 219.068,182.542 218.121 C 182.837 217.078,183.133 216.821,184.152 216.721 C 185.171 216.622,185.470 216.362,185.783 215.300 C 186.067 214.335,186.396 214.000,187.060 214.000 C 188.025 214.000,189.200 212.648,189.200 211.538 C 189.200 211.088,189.578 210.810,190.300 210.727 C 191.162 210.627,191.487 210.305,191.800 209.234 C 192.265 207.648,193.075 294.372,192.624 297.382 " stroke="none" fill="#3c9c54" fill-rule="evenodd"></path></g></svg>